<?xml version="1.0" encoding="UTF-8"?>
<svg version="1.1" xmlns="http://www.w3.org/2000/svg" width="500" height="500">
<path d="M0 0 C15.90500278 13.33398807 21.47041906 33.80823978 23.60331726 53.70481873 C23.99993824 58.64911343 23.99641807 63.59688761 24.015625 68.5546875 C24.02132507 69.71767365 24.02702515 70.88065979 24.03289795 72.07888794 C24.04230798 74.53467919 24.04886595 76.99048283 24.05273438 79.44628906 C24.06237995 83.14151031 24.09341804 86.83616033 24.125 90.53125 C24.24205978 116.55148273 22.11080394 141.06777981 3.40625 160.92578125 C-11.77666131 174.89680356 -30.72507817 177.47410683 -50.5625 177.625 C-51.82578125 177.65400391 -53.0890625 177.68300781 -54.390625 177.71289062 C-62.20165088 177.76566783 -68.21595144 176.90028805 -75.1875 173.3125 C-75.8475 172.9825 -76.5075 172.6525 -77.1875 172.3125 C-77.44332504 185.47327683 -77.07513151 198.55159834 -76.3125 211.6875 C-76.27320374 212.39340271 -76.23390747 213.09930542 -76.19342041 213.82659912 C-75.40046694 232.38394445 -75.40046694 232.38394445 -71.1875 250.3125 C-70.6875 252.875 -70.6875 252.875 -71.1875 255.3125 C-76.19054381 260.31554381 -80.58181447 262.53848188 -87.80908203 262.64160156 C-88.49083496 262.63612305 -89.17258789 262.63064453 -89.875 262.625 C-90.58253418 262.62081055 -91.29006836 262.61662109 -92.01904297 262.61230469 C-101.72154576 262.40431489 -109.10901857 259.82670572 -116.4375 253.3125 C-121.32233754 244.9384928 -120.70131657 233.07666847 -121.25 223.625 C-121.32798828 222.42939453 -121.40597656 221.23378906 -121.48632812 220.00195312 C-123.50060069 186.85801362 -123.50254392 153.61380865 -123.78213447 120.42103499 C-123.78804621 119.7198205 -123.79395795 119.018606 -123.80004883 118.29614258 C-123.80597048 117.59369362 -123.81189213 116.89124467 -123.81799322 116.16750938 C-123.86722374 110.43107369 -123.92727855 104.6947851 -123.98938721 98.95847648 C-124.04964254 93.34068125 -124.10154852 87.72284602 -124.14731437 82.10491425 C-124.17453322 78.78485054 -124.20606114 75.46498303 -124.24432945 72.14501762 C-124.81173505 21.83556743 -124.81173505 21.83556743 -107.8125 3.125 C-81.67826863 -21.59231521 -27.72466533 -20.54145658 0 0 Z M-71.125 36.89453125 C-79.42696316 45.11001563 -79.43852304 56.55901266 -79.5859375 67.5546875 C-79.6014552 70.69583281 -79.59735337 73.83592356 -79.57861328 76.97705078 C-79.56256806 80.17393908 -79.57850756 83.36955689 -79.59765625 86.56640625 C-79.98650382 109.13106646 -79.98650382 109.13106646 -70.7265625 129.015625 C-63.54900484 135.95730049 -54.62868075 136.79801099 -45.02636719 136.73657227 C-37.73387173 136.47860762 -32.93819344 134.57418127 -27.375 130 C-16.2854617 116.37571009 -17.00036051 97.39427813 -17.00219727 80.61547852 C-17.00000699 78.3821312 -16.98176878 76.14927641 -16.96289062 73.91601562 C-16.91262363 61.28798484 -16.98856472 48.71678381 -25.4375 38.625 C-38.47407174 27.66242831 -57.33595856 25.63533411 -71.125 36.89453125 Z " fill="#182A4B" transform="translate(476.1875,152.6875)"/>
<path d="M0 0 C2.23986324 0.57875661 4.26129233 1.32956015 6.390625 2.2265625 C9.86596016 3.64269317 12.37616633 3.59183943 16.12109375 2.94921875 C21.07241655 2.16927587 26.72663218 1.28557297 31.328125 3.61328125 C33.96873636 5.72703987 35.2556877 7.3842506 36.328125 10.6015625 C36.42207284 12.58490582 36.51113504 14.5686896 36.56713867 16.5534668 C37.6030183 50.70996296 50.58553434 79.66619597 72.67578125 105.45703125 C74.328125 107.6015625 74.328125 107.6015625 74.328125 109.6015625 C74.988125 109.6015625 75.648125 109.6015625 76.328125 109.6015625 C76.60197021 109.0147168 76.87581543 108.42787109 77.15795898 107.82324219 C78.29251229 105.66917686 79.52263872 103.94350161 81.05078125 102.0546875 C88.50384118 92.68271757 94.95963565 83.31188535 100.328125 72.6015625 C100.65006836 71.96959961 100.97201172 71.33763672 101.30371094 70.68652344 C109.61581691 54.08783485 112.85638026 36.78408632 113.43286133 18.30712891 C113.83515173 9.52705636 113.83515173 9.52705636 116.765625 5.91015625 C120.2697995 2.75319416 121.8432442 2.46372161 126.453125 2.4765625 C127.94199219 2.48042969 127.94199219 2.48042969 129.4609375 2.484375 C131.86484518 2.58262736 133.98297928 2.87474864 136.328125 3.3515625 C140.92393577 4.06079256 144.55957551 2.21262825 148.78125 0.55078125 C151.92323917 -0.62023618 154.03130157 -1.18339546 157.328125 -0.3984375 C161.72156763 3.29294949 162.6779462 6.12607372 163.19897461 11.81958008 C163.33750244 14.35639406 163.45052064 16.89468287 163.54296875 19.43359375 C163.60997557 20.8156796 163.67910504 22.19766397 163.75022888 23.57954407 C163.89489279 26.46912027 164.02564184 29.35883002 164.14471436 32.24957275 C164.31728263 36.427406 164.52365115 40.60297861 164.73876953 44.77880859 C165.1199052 52.26120324 165.46287344 59.74503018 165.79785156 67.22961426 C165.92184182 69.9820349 166.04906751 72.73430217 166.17626667 75.48657608 C166.57815705 84.19083184 166.96042246 92.89579214 167.328125 101.6015625 C167.37971771 102.81517456 167.43131042 104.02878662 167.48446655 105.2791748 C168.16766525 121.67314643 168.51457534 138.04717252 168.51342773 154.45556641 C168.5156724 158.05251971 168.53410886 161.64919193 168.55273438 165.24609375 C168.55565965 167.55989481 168.55765022 169.87369728 168.55859375 172.1875 C168.56577927 173.24987885 168.57296478 174.31225769 168.58036804 175.40682983 C168.56453421 180.50335301 168.482792 184.87286051 166.328125 189.6015625 C164.77734375 191.02734375 164.77734375 191.02734375 163.015625 191.9140625 C162.15517578 192.37232422 162.15517578 192.37232422 161.27734375 192.83984375 C151.92868367 196.49312775 140.4097185 195.51545821 131.328125 191.6015625 C127.40717537 189.39602833 126.54720498 188.26378154 125.125 183.96484375 C124.12055 179.58810059 124.68698879 175.82398348 125.578125 171.4765625 C131.20344852 139.28355909 134.07056678 97.6135929 127.328125 65.6015625 C126.98668457 66.16439941 126.64524414 66.72723633 126.29345703 67.30712891 C95.63709813 117.7026911 95.63709813 117.7026911 80.328125 122.6015625 C73.93572523 123.46966617 68.69395161 123.26052139 63.40234375 119.375 C47.56715738 105.83606476 36.83568416 88.38764552 26.328125 70.6015625 C25.32907918 68.9343237 24.32956846 67.26736224 23.328125 65.6015625 C19.09044628 78.31459867 21.1305227 94.38629513 21.140625 107.6015625 C21.14056458 108.80454987 21.14050415 110.00753723 21.14044189 111.24697876 C20.98720758 142.34639924 20.98720758 142.34639924 24.90576172 173.12841797 C25.83300364 178.55787499 26.3523479 183.80073341 23.328125 188.6015625 C14.24386581 194.65773529 4.40586435 196.11761915 -6.3359375 194.1015625 C-11.20880012 192.66740895 -14.6561544 190.84241959 -17.671875 186.6015625 C-25.23910511 144.33111148 -16.89718169 95.60550333 -14.74394226 52.83762741 C-14.65432555 51.05713415 -14.56493907 49.27662928 -14.4757843 47.49611282 C-14.21999142 42.38792781 -13.96098444 37.2799256 -13.69684792 32.17216492 C-13.61621467 30.60775479 -13.53639646 29.04330241 -13.45746422 27.47880554 C-12.35330249 5.66629296 -12.35330249 5.66629296 -9.671875 1.4765625 C-5.98085736 -0.83032352 -4.18150816 -0.70614873 0 0 Z " fill="#1A2C4C" transform="translate(160.671875,149.3984375)"/>
<path d="M0 0 C0.65613281 0.44859375 1.31226562 0.8971875 1.98828125 1.359375 C7.02772741 5.20100847 10.1659209 9.92735533 12 16 C12.87455954 26.61745971 8.24099702 36.58373169 2.66015625 45.3203125 C0.44185426 47.56471216 -0.85055253 47.9578199 -4 48 C-6.47265625 46.55859375 -6.47265625 46.55859375 -9.0625 44.4375 C-22.02418649 34.53477152 -36.8180169 28.80964728 -53.23046875 30.34765625 C-56.31544296 31.07430039 -58.42540084 32.16622688 -61 34 C-62.65722691 37.31445381 -62.73727803 40.44482037 -62 44 C-57.03617516 52.72672431 -48.32435564 55.81868734 -39.35058594 59.07250977 C-19.07270583 66.4350223 -0.51998279 77.148437 9.58984375 97.14453125 C15.73656468 111.30871427 17.60587279 126.21227056 12.31640625 141.01171875 C5.29728626 156.94532941 -6.87840218 167.47511671 -22.671875 174.125 C-46.85492445 181.93567436 -77.81630294 175.42567249 -100.125 165 C-106.49372495 161.42291526 -112.29583362 156.86807199 -114.5625 149.62890625 C-116.01644996 140.89222479 -116.59673101 130.63368666 -112.19921875 122.671875 C-110.37101414 120.12310766 -108.76001604 118.51143735 -106 117 C-100.89748703 116.42913874 -98.64146813 117.55222925 -94.625 120.625 C-80.07799827 130.82233992 -59.66962471 136.42169394 -42 135 C-37.21283381 133.914909 -32.74246642 132.22796907 -30 128 C-29.37229856 122.35068703 -29.76095732 119.74661554 -33 115 C-40.51861125 105.96684835 -51.62018245 102.41441802 -62.17382812 98.11425781 C-79.96655603 90.82937342 -96.04827257 80.87559616 -104.48046875 62.83203125 C-109.72011553 49.37333069 -110.36312413 33.49889187 -105.3203125 19.8515625 C-99.35677838 6.97174029 -90.59662655 -2.47211271 -78 -9 C-77.25878906 -9.39058594 -76.51757812 -9.78117188 -75.75390625 -10.18359375 C-52.13211673 -21.67868918 -20.73722799 -14.35363686 0 0 Z " fill="#192B4B" transform="translate(115,158)"/>
<path d="M0 0 C6.13368295 5.34483658 9.44868961 13.64848888 10.19140625 21.58984375 C10.58750368 31.51783425 8.0852069 40.41895644 1.67578125 48.1484375 C-3.66323313 53.45145852 -8.61394584 55.1884704 -16.125 55.4375 C-25.01736354 55.07415611 -30.46647066 52.3113577 -36.5234375 45.8671875 C-42.33816507 38.34050968 -43.8723039 29.17274852 -43.0625 19.875 C-41.47258418 11.30562323 -37.6622822 3.38356281 -30.6875 -2.0625 C-20.47878583 -8.51833894 -9.56194602 -6.63481968 0 0 Z " fill="#1C2E4D" transform="translate(196.0625,90.125)"/>
<path d="M0 0 C7.61725873 6.52907892 11.29033484 14.14838541 12.18359375 24.03125 C12.49940832 33.39422307 9.95913864 40.76195946 4 48 C-1.59518979 53.76772868 -6.52066251 56.28051053 -14.6875 56.5 C-21.86757175 56.3721872 -26.62980384 54.79658405 -32 50 C-38.62802285 42.61207644 -41.65176117 33.36876616 -41.28125 23.50390625 C-40.28402044 14.6257931 -36.82980618 6.64840501 -30.3359375 0.3984375 C-21.13177201 -6.78837665 -9.41091621 -6.64299967 0 0 Z " fill="#1A2C4C" transform="translate(311,89)"/>
<path d="M0 0 C2.64 0 5.28 0 8 0 C8.94011264 1.85284336 9.87695592 3.70734568 10.8125 5.5625 C11.33457031 6.59503906 11.85664063 7.62757813 12.39453125 8.69140625 C14.04410556 12.09089394 15.53736053 15.5168976 17 19 C18.64690003 16.2089613 20.29233741 13.41706312 21.9375 10.625 C22.40607422 9.8309375 22.87464844 9.036875 23.35742188 8.21875 C24.0293457 7.07792969 24.0293457 7.07792969 24.71484375 5.9140625 C25.33540649 4.8614624 25.33540649 4.8614624 25.96850586 3.78759766 C26.68454054 2.54669684 27.35929094 1.28141812 28 0 C30.31 0 32.62 0 35 0 C35 11.22 35 22.44 35 34 C33.35 34 31.7 34 30 34 C29.67 27.07 29.34 20.14 29 13 C26.03 18.61 23.06 24.22 20 30 C18.68 30 17.36 30 16 30 C13.36 24.72 10.72 19.44 8 14 C7.67 20.6 7.34 27.2 7 34 C4.69 34 2.38 34 0 34 C0 22.78 0 11.56 0 0 Z " fill="#48546B" transform="translate(183,358)"/>
<path d="M0 0 C3.196875 -0.061875 6.39375 -0.12375 9.6875 -0.1875 C11.18543091 -0.22846802 11.18543091 -0.22846802 12.71362305 -0.27026367 C17.60045592 -0.31605465 21.08380688 -0.29406875 25 3 C26.52846661 6.05693322 26.23242445 8.62984547 26 12 C24.5 14.4375 24.5 14.4375 23 16 C23.66 16.66 24.32 17.32 25 18 C27.75777063 22.13665594 27.62388198 24.08692938 27 29 C24.79259319 31.96858157 23.51402627 32.82865791 20 34 C18.44578271 34.08106686 16.88832973 34.10756898 15.33203125 34.09765625 C14.52741455 34.09515869 13.72279785 34.09266113 12.89379883 34.09008789 C11.36855591 34.07643188 11.36855591 34.07643188 9.8125 34.0625 C4.9553125 34.0315625 4.9553125 34.0315625 0 34 C0 22.78 0 11.56 0 0 Z M6 5 C6 7.64 6 10.28 6 13 C7.60332791 13.08121924 9.20784026 13.13929134 10.8125 13.1875 C11.70582031 13.22230469 12.59914062 13.25710938 13.51953125 13.29296875 C16.0362204 13.2004794 16.0362204 13.2004794 17.82421875 11.67578125 C19.28717923 9.93188488 19.28717923 9.93188488 19 7 C15.93753253 5.21590198 13.77920727 4.77119979 10.25 4.875 C9.05117187 4.90207031 9.05117187 4.90207031 7.828125 4.9296875 C6.92320312 4.96449219 6.92320312 4.96449219 6 5 Z M6 20 C6 22.64 6 25.28 6 28 C7.95803507 28.05389087 9.91648909 28.09274217 11.875 28.125 C12.96554688 28.14820313 14.05609375 28.17140625 15.1796875 28.1953125 C18.1371051 28.30060534 18.1371051 28.30060534 20 26 C19.83492354 23.42459787 19.83492354 23.42459787 19 21 C16.35541621 19.67770811 14.32238699 19.90322806 11.375 19.9375 C9.87066406 19.95103516 9.87066406 19.95103516 8.3359375 19.96484375 C7.17964844 19.98224609 7.17964844 19.98224609 6 20 Z " fill="#182744" transform="translate(233,358)"/>
<path d="M0 0 C3.196875 -0.061875 6.39375 -0.12375 9.6875 -0.1875 C11.18543091 -0.22846802 11.18543091 -0.22846802 12.71362305 -0.27026367 C17.60045592 -0.31605465 21.08380688 -0.29406875 25 3 C26.58512383 6.17024765 26.42372144 9.54667028 26 13 C24.5 15 24.5 15 23 16 C23.66 16.639375 24.32 17.27875 25 17.9375 C27.63748735 21.9761525 27.91895781 25.28692924 27 30 C24.4588832 32.80399096 21.63186465 33.91488311 17.82348633 34.11352539 C17.00130615 34.10828857 16.17912598 34.10305176 15.33203125 34.09765625 C14.52741455 34.09515869 13.72279785 34.09266113 12.89379883 34.09008789 C11.36855591 34.07643188 11.36855591 34.07643188 9.8125 34.0625 C4.9553125 34.0315625 4.9553125 34.0315625 0 34 C0 22.78 0 11.56 0 0 Z M6 5 C6 7.64 6 10.28 6 13 C7.60379341 13.05416188 9.20811406 13.09286638 10.8125 13.125 C11.70582031 13.14820313 12.59914063 13.17140625 13.51953125 13.1953125 C16.25402714 13.18285827 16.25402714 13.18285827 19 11 C18.67 9.35 18.34 7.7 18 6 C15.11788698 5.03929566 13.30149956 4.89418117 10.3125 4.9375 C9.50425781 4.94652344 8.69601563 4.95554687 7.86328125 4.96484375 C7.24839844 4.97644531 6.63351563 4.98804688 6 5 Z M6 20 C6 22.64 6 25.28 6 28 C7.95803507 28.05389087 9.91648909 28.09274217 11.875 28.125 C12.96554688 28.14820313 14.05609375 28.17140625 15.1796875 28.1953125 C18.1371051 28.30060534 18.1371051 28.30060534 20 26 C19.83492354 23.42459787 19.83492354 23.42459787 19 21 C16.35541621 19.67770811 14.32238699 19.90322806 11.375 19.9375 C9.87066406 19.95103516 9.87066406 19.95103516 8.3359375 19.96484375 C7.17964844 19.98224609 7.17964844 19.98224609 6 20 Z " fill="#1C2D4B" transform="translate(99,358)"/>
<path d="M0 0 C4.19800198 3.02646655 7.78062936 6.08589564 9.390625 11.1484375 C10.22735113 16.47801916 9.42314655 20.19571266 6.6875 24.9375 C2.2807467 30.32353181 -2.35338439 32.60870938 -9.25 33.375 C-14.54838461 33.13883169 -19.01056194 31.06850207 -22.890625 27.4765625 C-26.46941106 23.42471851 -27.17667357 20.77115676 -27.5625 15.5625 C-27.16007569 9.7273475 -25.10433838 6.43593472 -20.8125 2.625 C-14.92635678 -2.29302756 -7.11508205 -2.28219613 0 0 Z M-18.125 8.4375 C-20.8823091 11.92041676 -20.74301273 15.70412482 -20.3125 19.9375 C-18.53646702 22.91301795 -16.45739623 25.36505188 -13.3125 26.9375 C-8.79339717 27.5701744 -4.64996822 27.71044479 -0.8125 25 C2.43487412 21.02196671 3.06307292 18.00773438 2.6875 12.9375 C1.38977531 8.81531568 0.39625676 7.38989793 -3.25 5.0625 C-9.19407232 2.87896323 -13.38759526 4.51688918 -18.125 8.4375 Z " fill="#36445E" transform="translate(162.3125,359.0625)"/>
<path d="M0 0 C1.134375 0.020625 2.26875 0.04125 3.4375 0.0625 C6.96401866 6.93953731 10.20707479 13.89646578 13.25 21 C13.86004883 22.39702148 13.86004883 22.39702148 14.48242188 23.82226562 C14.86591797 24.71494141 15.24941406 25.60761719 15.64453125 26.52734375 C15.9897583 27.327771 16.33498535 28.12819824 16.69067383 28.95288086 C17.4375 31.0625 17.4375 31.0625 17.4375 34.0625 C15.1275 34.0625 12.8175 34.0625 10.4375 34.0625 C9.7775 31.7525 9.1175 29.4425 8.4375 27.0625 C2.8275 27.0625 -2.7825 27.0625 -8.5625 27.0625 C-9.2225 29.3725 -9.8825 31.6825 -10.5625 34.0625 C-12.8725 34.0625 -15.1825 34.0625 -17.5625 34.0625 C-15.23403028 26.72242325 -12.41907341 19.65984766 -9.4375 12.5625 C-8.98246094 11.46679688 -8.52742188 10.37109375 -8.05859375 9.2421875 C-4.22529842 0.07412804 -4.22529842 0.07412804 0 0 Z M-1.5625 8.0625 C-2.2333712 9.6857687 -2.89907029 11.31117578 -3.5625 12.9375 C-3.93375 13.84242188 -4.305 14.74734375 -4.6875 15.6796875 C-5.67740226 17.95233858 -5.67740226 17.95233858 -5.5625 20.0625 C-1.9325 20.0625 1.6975 20.0625 5.4375 20.0625 C4.12688409 15.82820244 2.49393741 11.98842596 0.4375 8.0625 C-0.2225 8.0625 -0.8825 8.0625 -1.5625 8.0625 Z " fill="#54637E" transform="translate(285.5625,357.9375)"/>
<path d="M0 0 C2.6953125 -0.3671875 2.6953125 -0.3671875 6 0 C7.97120857 1.97120857 9.34906781 3.6068627 10.875 5.875 C11.2771875 6.43058594 11.679375 6.98617188 12.09375 7.55859375 C15 11.66095344 15 11.66095344 15 14 C18.65765793 10.76225446 20.63944331 6.52211936 22.98828125 2.30078125 C25 0 25 0 28.23046875 -0.33203125 C29.60138672 -0.16767578 29.60138672 -0.16767578 31 0 C29.73167312 2.56376764 28.46043635 5.12602212 27.1875 7.6875 C26.83107422 8.40873047 26.47464844 9.12996094 26.10742188 9.87304688 C24.60576293 12.89014145 23.14558024 15.78030619 21.28125 18.59375 C19.61920412 21.71515324 19.49004508 24.29710747 19.3125 27.8125 C19.24675781 28.97394531 19.18101562 30.13539063 19.11328125 31.33203125 C19.07589844 32.21246094 19.03851563 33.09289062 19 34 C16.69 34 14.38 34 12 34 C12.08314453 32.94039063 12.08314453 32.94039063 12.16796875 31.859375 C12.23942079 20.48421053 6.74354452 12.23044006 0.99389648 2.74316406 C0 1 0 1 0 0 Z " fill="#394761" transform="translate(307,358)"/>
<path d="M0 0 C9.24 0 18.48 0 28 0 C28 1.65 28 3.3 28 5 C24.7 5 21.4 5 18 5 C18 14.57 18 24.14 18 34 C15.69 34 13.38 34 11 34 C11 24.43 11 14.86 11 5 C7.37 5 3.74 5 0 5 C0 3.35 0 1.7 0 0 Z " fill="#49566F" transform="translate(49,358)"/>
<path d="M0 0 C3.196875 -0.061875 6.39375 -0.12375 9.6875 -0.1875 C11.18543091 -0.22846802 11.18543091 -0.22846802 12.71362305 -0.27026367 C17.60045592 -0.31605465 21.08380688 -0.29406875 25 3 C26.54586876 6.09173752 26.29359521 8.59429552 26 12 C24 14.4375 24 14.4375 22 16 C21.67 14.68 21.34 13.36 21 12 C19.35 12.33 17.7 12.66 16 13 C16.99 11.02 17.98 9.04 19 7 C14.71 6.34 10.42 5.68 6 5 C6 7.64 6 10.28 6 13 C8.97 13 11.94 13 15 13 C15 13.33 15 13.66 15 14 C13.37536158 14.05395478 11.75021459 14.09277195 10.125 14.125 C8.76761719 14.15980469 8.76761719 14.15980469 7.3828125 14.1953125 C5 14 5 14 3 12 C3 11.01 3 10.02 3 9 C2.34 9 1.68 9 1 9 C1 16.92 1 24.84 1 33 C7.27 33 13.54 33 20 33 C20 33.33 20 33.66 20 34 C13.4 34 6.8 34 0 34 C0 22.78 0 11.56 0 0 Z " fill="#556178" transform="translate(233,358)"/>
<path d="M0 0 C0.33 0 0.66 0 1 0 C1.01458252 0.86278564 1.02916504 1.72557129 1.04418945 2.61450195 C1.10527754 5.81849647 1.17943549 9.02184625 1.26245117 12.2253418 C1.29568549 13.61129377 1.32372226 14.99738061 1.34643555 16.38354492 C1.38000617 18.37706843 1.43388 20.37021741 1.48828125 22.36328125 C1.51446533 23.56251221 1.54064941 24.76174316 1.56762695 25.99731445 C1.74326094 29.34236828 1.74326094 29.34236828 5 32 C5 27.71 5 23.42 5 19 C10.28 19 15.56 19 21 19 C21.33 18.01 21.66 17.02 22 16 C24.72720614 18.11358476 26.73693435 19.75859104 27.47265625 23.23046875 C27.69776306 29.23005456 27.69776306 29.23005456 25.1875 32 C21.73777666 33.57701638 19.08568909 34.1215649 15.33203125 34.09765625 C14.52741455 34.09515869 13.72279785 34.09266113 12.89379883 34.09008789 C11.36855591 34.07643188 11.36855591 34.07643188 9.8125 34.0625 C4.9553125 34.0315625 4.9553125 34.0315625 0 34 C0 22.78 0 11.56 0 0 Z M6 20 C6 22.64 6 25.28 6 28 C7.95803507 28.05389087 9.91648909 28.09274217 11.875 28.125 C12.96554688 28.14820313 14.05609375 28.17140625 15.1796875 28.1953125 C18.1371051 28.30060534 18.1371051 28.30060534 20 26 C19.83492354 23.42459787 19.83492354 23.42459787 19 21 C16.35541621 19.67770811 14.32238699 19.90322806 11.375 19.9375 C9.87066406 19.95103516 9.87066406 19.95103516 8.3359375 19.96484375 C7.17964844 19.98224609 7.17964844 19.98224609 6 20 Z " fill="#515E75" transform="translate(99,358)"/>
<path d="M0 0 C2.31 0 4.62 0 7 0 C7 11.22 7 22.44 7 34 C4.69 34 2.38 34 0 34 C0 22.78 0 11.56 0 0 Z " fill="#3B4863" transform="translate(12,358)"/>
<path d="M0 0 C2.31 0 4.62 0 7 0 C7 11.22 7 22.44 7 34 C4.69 34 2.38 34 0 34 C0 22.78 0 11.56 0 0 Z " fill="#3B4862" transform="translate(32,358)"/>
<path d="M0 0 C2.64 0 5.28 0 8 0 C8.33 2.64 8.66 5.28 9 8 C8.01 8.33 7.02 8.66 6 9 C6 16.92 6 24.84 6 33 C4.02 33 2.04 33 0 33 C0 22.11 0 11.22 0 0 Z " fill="#202E4B" transform="translate(183,358)"/>
<path d="M0 0 C0.33 0.99 0.66 1.98 1 3 C-0.546875 3.4021875 -0.546875 3.4021875 -2.125 3.8125 C-6.73664152 5.15678417 -10.71839697 6.46207637 -13.875 10.25 C-15.889345 15.17395445 -15.22935653 19.92890429 -14 25 C-14.99 25.33 -15.98 25.66 -17 26 C-17.66 25.67 -18.32 25.34 -19 25 C-19 24.34 -19 23.68 -19 23 C-19.66 22.443125 -20.32 21.88625 -21 21.3125 C-23 19 -23 19 -23.4375 15.625 C-22.68785526 9.41365786 -20.09141913 5.08526986 -15.31640625 1.125 C-10.55727984 -1.18634638 -5.14967535 -0.41816913 0 0 Z " fill="#445168" transform="translate(158,359)"/>
<path d="M0 0 C0.66 0 1.32 0 2 0 C2.66 1.32 3.32 2.64 4 4 C9.73842251 4.20413361 14.60539047 4.27141454 20 2 C20.33 3.65 20.66 5.3 21 7 C20.01 7.33 19.02 7.66 18 8 C17.01 8.66 16.02 9.32 15 10 C11.31619572 10.26655603 7.69863419 10.08702669 4 10 C4 14.62 4 19.24 4 24 C2.68 24 1.36 24 0 24 C0 16.08 0 8.16 0 0 Z " fill="#152643" transform="translate(234,367)"/>
<path d="M0 0 C2.29296875 0.1328125 2.29296875 0.1328125 5 1 C6.80078125 3.6171875 6.80078125 3.6171875 8.3125 6.875 C8.82425781 7.94492187 9.33601563 9.01484375 9.86328125 10.1171875 C11 13 11 13 11 16 C8.69 16 6.38 16 4 16 C3.67 13.03 3.34 10.06 3 7 C-2.61 7 -8.22 7 -14 7 C-11 3 -11 3 -8.30078125 2.609375 C-6.82158203 2.67898438 -6.82158203 2.67898438 -5.3125 2.75 C-4.31863281 2.78609375 -3.32476562 2.8221875 -2.30078125 2.859375 C-1.16189453 2.92898438 -1.16189453 2.92898438 0 3 C0 2.01 0 1.02 0 0 Z " fill="#172541" transform="translate(292,376)"/>
<path d="M0 0 C1.98 0 3.96 0 6 0 C6 10.89 6 21.78 6 33 C4.68 33 3.36 33 2 33 C2 24.75 2 16.5 2 8 C2.66 8 3.32 8 4 8 C4 7.34 4 6.68 4 6 C2.68 5.67 1.36 5.34 0 5 C0 3.35 0 1.7 0 0 Z " fill="#172543" transform="translate(212,358)"/>
<path d="M0 0 C1.95513581 1.95513581 2.62972069 3.13958513 3.69140625 5.625 C3.99626953 6.33140625 4.30113281 7.0378125 4.61523438 7.765625 C5.08413086 8.87164062 5.08413086 8.87164062 5.5625 10 C7.68475495 15.04434504 7.68475495 15.04434504 10 20 C9.01 20.33 8.02 20.66 7 21 C6.67 22.32 6.34 23.64 6 25 C4.02 21.04 2.04 17.08 0 13 C-0.33 19.6 -0.66 26.2 -1 33 C-3.31 33 -5.62 33 -8 33 C-8 32.67 -8 32.34 -8 32 C-6.02 32 -4.04 32 -2 32 C-2 24.08 -2 16.16 -2 8 C-1.34 7.67 -0.68 7.34 0 7 C0 4.69 0 2.38 0 0 Z " fill="#677287" transform="translate(191,359)"/>
<path d="M0 0 C0.99 0.33 1.98 0.66 3 1 C3 8.92 3 16.84 3 25 C1.35 25 -0.3 25 -2 25 C-2.05816623 21.58340509 -2.09365195 18.16693795 -2.125 14.75 C-2.14175781 13.78191406 -2.15851562 12.81382812 -2.17578125 11.81640625 C-2.18222656 10.88183594 -2.18867187 9.94726562 -2.1953125 8.984375 C-2.20578613 8.12553711 -2.21625977 7.26669922 -2.22705078 6.38183594 C-1.98293323 3.82096404 -1.28990512 2.20488971 0 0 Z " fill="#162545" transform="translate(63,366)"/>
<path d="M0 0 C1.134375 0.020625 2.26875 0.04125 3.4375 0.0625 C6.19764342 4.86274943 7.0747119 8.62067844 7.4375 14.0625 C7.1075 14.7225 6.7775 15.3825 6.4375 16.0625 C5.4475 16.0625 4.4575 16.0625 3.4375 16.0625 C0.4375 10.3125 0.4375 10.3125 0.4375 8.0625 C-0.201875 7.918125 -0.84125 7.77375 -1.5 7.625 C-3.5625 7.0625 -3.5625 7.0625 -4.5625 6.0625 C-4.6875 3.5625 -4.6875 3.5625 -4.5625 1.0625 C-3.5625 0.0625 -3.5625 0.0625 0 0 Z " fill="#495469" transform="translate(285.5625,357.9375)"/>
<path d="M0 0 C2.97 0.495 2.97 0.495 6 1 C5.49646154 5.33043075 4.74386457 8.54476313 2 12 C0.68 12 -0.64 12 -2 12 C-2.66 9.03 -3.32 6.06 -4 3 C-2.68 3 -1.36 3 0 3 C0 2.01 0 1.02 0 0 Z " fill="#182747" transform="translate(201,376)"/>
<path d="M0 0 C6.27 0 12.54 0 19 0 C18 3 18 3 16 4 C13.7927077 4.07092842 11.58332548 4.08415025 9.375 4.0625 C8.18648437 4.05347656 6.99796875 4.04445313 5.7734375 4.03515625 C4.85820312 4.02355469 3.94296875 4.01195312 3 4 C2.67 4.99 2.34 5.98 2 7 C1.34 7 0.68 7 0 7 C0 4.69 0 2.38 0 0 Z " fill="#182544" transform="translate(234,358)"/>
<path d="M0 0 C6.27 0 12.54 0 19 0 C18.67 1.32 18.34 2.64 18 4 C15.35541621 5.32229189 13.32238699 5.09677194 10.375 5.0625 C9.37210938 5.05347656 8.36921875 5.04445313 7.3359375 5.03515625 C6.56507812 5.02355469 5.79421875 5.01195312 5 5 C4.67 4.01 4.34 3.02 4 2 C3.34 1.67 2.68 1.34 2 1 C1.67 2.98 1.34 4.96 1 7 C0.67 7 0.34 7 0 7 C0 4.69 0 2.38 0 0 Z " fill="#172642" transform="translate(100,358)"/>
<path d="M0 0 C1.875 0.3125 1.875 0.3125 4 1 C6.72286806 5.08430208 6.38524534 7.14590877 6 12 C5.01 12.66 4.02 13.32 3 14 C3.33 12.35 3.66 10.7 4 9 C2.35 9.33 0.7 9.66 -1 10 C-1.103125 9.38125 -1.20625 8.7625 -1.3125 8.125 C-1.87525373 5.63473516 -1.87525373 5.63473516 -5 4 C-4.360625 3.71125 -3.72125 3.4225 -3.0625 3.125 C-0.84793921 2.17176549 -0.84793921 2.17176549 0 0 Z " fill="#4D5B73" transform="translate(119,359)"/>
<path d="M0 0 C1.98 0.66 3.96 1.32 6 2 C5.566875 2.7734375 5.566875 2.7734375 5.125 3.5625 C3.71219973 6.62356725 2.8751483 9.74944918 2 13 C1.34 12.67 0.68 12.34 0 12 C0.33 10.35 0.66 8.7 1 7 C-1.56893838 5.71553081 -3.76576337 5.67022856 -6.625 5.4375 C-8.12933594 5.31181641 -8.12933594 5.31181641 -9.6640625 5.18359375 C-10.43492187 5.12300781 -11.20578125 5.06242187 -12 5 C-12 7.64 -12 10.28 -12 13 C-8.37 13 -4.74 13 -1 13 C-1 13.33 -1 13.66 -1 14 C-4.96 14 -8.92 14 -13 14 C-13 10.7 -13 7.4 -13 4 C-11.411875 3.87625 -9.82375 3.7525 -8.1875 3.625 C-4.50657469 3.33817465 -3.16240582 3.10827055 0 1 C0 0.67 0 0.34 0 0 Z " fill="#7A879C" transform="translate(251,373)"/>
<path d="M0 0 C1.98 0 3.96 0 6 0 C3.69 4.62 1.38 9.24 -1 14 C-1.33 12.68 -1.66 11.36 -2 10 C-3.32 10.33 -4.64 10.66 -6 11 C-4.54283085 6.87135407 -2.82128623 3.36986966 0 0 Z " fill="#3F4A60" transform="translate(332,358)"/>
<path d="M0 0 C1.98 0.99 1.98 0.99 4 2 C3.67 2.66 3.34 3.32 3 4 C4.97536745 3.65213292 4.97536745 3.65213292 7 3 C7.33 2.34 7.66 1.68 8 1 C8.66 1.639375 9.32 2.27875 10 2.9375 C13.85690912 5.58912502 16.37840033 5.68667121 21 6 C21 6.33 21 6.66 21 7 C18.69 7 16.38 7 14 7 C14 7.66 14 8.32 14 9 C12.66666667 9.66666667 11.33333333 10.33333333 10 11 C5.83795394 8.44601719 2.77068074 6.04945647 0 2 C0 1.34 0 0.68 0 0 Z " fill="#4F5B71" transform="translate(136,380)"/>
<path d="M0 0 C2.4375 1.125 2.4375 1.125 5 3 C5.8125 6.1875 5.8125 6.1875 6 9 C5.67 8.01 5.34 7.02 5 6 C3.68 6 2.36 6 1 6 C0.34 7.32 -0.32 8.64 -1 10 C-1.12375 9.360625 -1.2475 8.72125 -1.375 8.0625 C-1.58125 7.381875 -1.7875 6.70125 -2 6 C-4.56893838 4.71553081 -6.76576337 4.67022856 -9.625 4.4375 C-11.12933594 4.31181641 -11.12933594 4.31181641 -12.6640625 4.18359375 C-13.43492188 4.12300781 -14.20578125 4.06242187 -15 4 C-15 6.64 -15 9.28 -15 12 C-11.37 12 -7.74 12 -4 12 C-4 12.33 -4 12.66 -4 13 C-7.96 13 -11.92 13 -16 13 C-16 9.7 -16 6.4 -16 3 C-10.72 3 -5.44 3 0 3 C0 2.01 0 1.02 0 0 Z " fill="#788497" transform="translate(120,374)"/>
<path d="M0 0 C2.35348271 2.35348271 2.36468749 3.21466691 2.6875 6.4375 C2.77386719 7.21996094 2.86023438 8.00242187 2.94921875 8.80859375 C3 11 3 11 2 14 C-0.31 14 -2.62 14 -5 14 C-3.45730076 9.27934033 -1.92205381 4.58335908 0 0 Z " fill="#4D566B" transform="translate(273,378)"/>
<path d="M0 0 C-0.33 1.98 -0.66 3.96 -1 6 C-1.66 6 -2.32 6 -3 6 C-2.67 7.32 -2.34 8.64 -2 10 C-4.31 9.67 -6.62 9.34 -9 9 C-8.67 7.68 -8.34 6.36 -8 5 C-11.3 4.67 -14.6 4.34 -18 4 C-18 3.67 -18 3.34 -18 3 C-17.00419922 2.92652344 -17.00419922 2.92652344 -15.98828125 2.8515625 C-10.52545494 2.38901662 -5.25285253 0 0 0 Z " fill="#263551" transform="translate(123,368)"/>
<path d="M0 0 C0.66 4.29 1.32 8.58 2 13 C1.01 13.33 0.02 13.66 -1 14 C-1.66 13.67 -2.32 13.34 -3 13 C-3 12.34 -3 11.68 -3 11 C-3.99 10.34 -4.98 9.68 -6 9 C-5.6875 5.625 -5.6875 5.625 -5 2 C-2 0 -2 0 0 0 Z " fill="#283752" transform="translate(142,371)"/>
<path d="M0 0 C11.89771646 -0.57159848 11.89771646 -0.57159848 17 3 C18.875 5.1875 18.875 5.1875 20 7 C19.01 7.33 18.02 7.66 17 8 C16.34 7.67 15.68 7.34 15 7 C14.67 7.66 14.34 8.32 14 9 C12.02 8.01 10.04 7.02 8 6 C8.66 5.01 9.32 4.02 10 3 C10 2.34 10 1.68 10 1 C6.7 1 3.4 1 0 1 C0 0.67 0 0.34 0 0 Z " fill="#4C5871" transform="translate(148,358)"/>
<path d="M0 0 C5.28 0 10.56 0 16 0 C16 1.65 16 3.3 16 5 C14.37581255 5.08090971 12.75048255 5.13914995 11.125 5.1875 C10.22007813 5.22230469 9.31515625 5.25710938 8.3828125 5.29296875 C7.20332031 5.14794922 7.20332031 5.14794922 6 5 C5.34 4.01 4.68 3.02 4 2 C2.68 1.34 1.36 0.68 0 0 Z " fill="#172640" transform="translate(61,358)"/>
<path d="M0 0 C0.99 0 1.98 0 3 0 C3.67354499 1.43429001 4.33859701 2.87257057 5 4.3125 C5.556875 5.51326172 5.556875 5.51326172 6.125 6.73828125 C7 9 7 9 7 12 C4.69 12 2.38 12 0 12 C-0.625 8.625 -0.625 8.625 -1 5 C-0.34 4.34 0.32 3.68 1 3 C0.67 2.01 0.34 1.02 0 0 Z " fill="#4B576C" transform="translate(296,380)"/>
<path d="M0 0 C0.66 0.66 1.32 1.32 2 2 C1.6875 4.3125 1.6875 4.3125 1 7 C0.814375 7.928125 0.62875 8.85625 0.4375 9.8125 C0.293125 10.534375 0.14875 11.25625 0 12 C-0.969375 12.28875 -1.93875 12.5775 -2.9375 12.875 C-6.10664203 13.64214682 -6.10664203 13.64214682 -7 16 C-7.66 15.67 -8.32 15.34 -9 15 C-6.03 10.05 -3.06 5.1 0 0 Z " fill="#3D4A63" transform="translate(259,226)"/>
<path d="M0 0 C1.32 0.33 2.64 0.66 4 1 C4.33 3.64 4.66 6.28 5 9 C2.525 10.485 2.525 10.485 0 12 C0.33 10.35 0.66 8.7 1 7 C-0.65 7 -2.3 7 -4 7 C-3.67 6.34 -3.34 5.68 -3 5 C-2.34 5 -1.68 5 -1 5 C-0.67 3.35 -0.34 1.7 0 0 Z " fill="#303D5A" transform="translate(121,379)"/>
<path d="M0 0 C3.3 0 6.6 0 10 0 C10.33 1.32 10.66 2.64 11 4 C8.47524538 5.26237731 6.68799534 5.09856404 3.875 5.0625 C2.96492188 5.05347656 2.05484375 5.04445313 1.1171875 5.03515625 C0.41851562 5.02355469 -0.28015625 5.01195312 -1 5 C-0.67 3.35 -0.34 1.7 0 0 Z " fill="#162643" transform="translate(105,372)"/>
<path d="M0 0 C2 3 2 3 2 5 C2.99 5.33 3.98 5.66 5 6 C5 6.66 5 7.32 5 8 C4.195625 8.12375 3.39125 8.2475 2.5625 8.375 C1.716875 8.58125 0.87125 8.7875 0 9 C-0.33 9.66 -0.66 10.32 -1 11 C-3.0625 12.125 -3.0625 12.125 -5 13 C-4.48474397 7.71862571 -2.74522883 4.42778844 0 0 Z " fill="#32415B" transform="translate(211,358)"/>
<path d="M0 0 C2 2 2 2 2.375 5.875 C2.3053021 9.06948727 2.12466451 9.83378065 0.125 12.5 C-2 14 -2 14 -4 14 C-3.91231752 12.4156683 -3.80412671 10.83246433 -3.6875 9.25 C-3.60048828 7.92742187 -3.60048828 7.92742187 -3.51171875 6.578125 C-2.9358819 3.67696226 -1.92403852 2.20774393 0 0 Z " fill="#2A3A53" transform="translate(258,377)"/>
<path d="M0 0 C2.8125 -0.3125 2.8125 -0.3125 6 0 C8 2.0625 8 2.0625 9 5 C8.1875 8.8125 8.1875 8.8125 7 12 C3.95950199 8.35140239 2.03481238 4.2555467 0 0 Z " fill="#445067" transform="translate(307,358)"/>
<path d="M0 0 C2.3525696 4.39146325 3.16590255 7.79102243 2.87890625 12.765625 C2.83056641 13.65507812 2.78222656 14.54453125 2.73242188 15.4609375 C2.64831055 16.84152344 2.64831055 16.84152344 2.5625 18.25 C2.51029297 19.18585938 2.45808594 20.12171875 2.40429688 21.0859375 C2.27493175 23.39098887 2.13997966 25.69557289 2 28 C1.67 28 1.34 28 1 28 C0.18101378 24.42649959 -0.11811958 21.14340521 -0.09765625 17.48046875 C-0.09443359 16.45888672 -0.09121094 15.43730469 -0.08789062 14.38476562 C-0.07951172 13.32966797 -0.07113281 12.27457031 -0.0625 11.1875 C-0.05798828 10.11306641 -0.05347656 9.03863281 -0.04882812 7.93164062 C-0.03707729 5.28770317 -0.02064787 2.64388048 0 0 Z " fill="#4F586E" transform="translate(290,216)"/>
<path d="M0 0 C2.22825644 2.22825644 2.69239369 3.65761628 3.625 6.625 C4.01558594 7.85089844 4.01558594 7.85089844 4.4140625 9.1015625 C4.60742188 9.72804688 4.80078125 10.35453125 5 11 C2.525 10.505 2.525 10.505 0 10 C0 10.99 0 11.98 0 13 C-4.29 13 -8.58 13 -13 13 C-12.67 12.34 -12.34 11.68 -12 11 C-8.37 11.33 -4.74 11.66 -1 12 C-1.33 10.68 -1.66 9.36 -2 8 C-1.34 8 -0.68 8 0 8 C0 5.36 0 2.72 0 0 Z " fill="#636E85" transform="translate(292,366)"/>
<path d="M0 0 C1.32 0.33 2.64 0.66 4 1 C-1.445 7.435 -1.445 7.435 -7 14 C-7.33 13.34 -7.66 12.68 -8 12 C-6.85546875 9.6875 -6.85546875 9.6875 -5.1875 7 C-4.64480469 6.113125 -4.10210937 5.22625 -3.54296875 4.3125 C-2 2 -2 2 0 0 Z " fill="#4A566B" transform="translate(280,90)"/>
<path d="M0 0 C0.98484375 0.02707031 1.9696875 0.05414063 2.984375 0.08203125 C3.73203125 0.11683594 4.4796875 0.15164062 5.25 0.1875 C5.25 1.1775 5.25 2.1675 5.25 3.1875 C4.05375 3.14625 2.8575 3.105 1.625 3.0625 C-2.17864634 3.0625 -5.22995178 3.64211298 -8.75 5.1875 C-9.08 5.8475 -9.41 6.5075 -9.75 7.1875 C-10.41 7.1875 -11.07 7.1875 -11.75 7.1875 C-9.35239168 1.39327989 -6.15973262 -0.21999045 0 0 Z " fill="#485368" transform="translate(287.75,151.8125)"/>
<path d="M0 0 C0.99 0.495 0.99 0.495 2 1 C2 1.66 2 2.32 2 3 C3.12920844 3.98229612 4.30380519 4.91298049 5.5 5.8125 C8.94414568 8.63295733 8.94414568 8.63295733 9.4375 11.875 C9.293125 12.57625 9.14875 13.2775 9 14 C7.87105124 13.06725891 6.74699124 12.12859878 5.625 11.1875 C4.99851562 10.66542969 4.37203125 10.14335937 3.7265625 9.60546875 C1.25005944 7.30265708 0.03424091 5.73617953 -0.125 2.3125 C-0.08375 1.549375 -0.0425 0.78625 0 0 Z " fill="#414E63" transform="translate(2,306)"/>
<path d="M0 0 C2.71435596 0.93305986 3.78043163 1.62673377 5.25 4.125 C5.4975 4.74375 5.745 5.3625 6 6 C2.625 6.625 2.625 6.625 -1 7 C-1.66 6.34 -2.32 5.68 -3 5 C-2.75 2.9375 -2.75 2.9375 -2 1 C-1.34 0.67 -0.68 0.34 0 0 Z " fill="#162547" transform="translate(284,359)"/>
<path d="M0 0 C0.33 0 0.66 0 1 0 C1.36181089 2.29047223 1.71423224 4.58242945 2.0625 6.875 C2.25972656 8.15117188 2.45695312 9.42734375 2.66015625 10.7421875 C3 14 3 14 2 16 C1.34 16 0.68 16 0 16 C-1.30677037 11.09961113 -1.31718286 6.03761016 -1 1 C-0.67 0.67 -0.34 0.34 0 0 Z " fill="#545F71" transform="translate(271,109)"/>
<path d="M0 0 C0.495 0.309375 0.99 0.61875 1.5 0.9375 C4.97986781 2.41644382 8.24028509 2.62402851 12 3 C12 3.33 12 3.66 12 4 C9.69 4 7.38 4 5 4 C5 4.66 5 5.32 5 6 C3.66666667 6.66666667 2.33333333 7.33333333 1 8 C0.34 7.67 -0.32 7.34 -1 7 C-0.67 4.69 -0.34 2.38 0 0 Z " fill="#58657B" transform="translate(145,383)"/>
<path d="M0 0 C1.32 0 2.64 0 4 0 C5.125 5.75 5.125 5.75 4 8 C3.01 8 2.02 8 1 8 C-0.42944945 5.64561267 -1.08661261 4.51967567 -0.625 1.75 C-0.41875 1.1725 -0.2125 0.595 0 0 Z " fill="#26344F" transform="translate(288,366)"/>
<path d="M0 0 C2.97 0.495 2.97 0.495 6 1 C5.25 6.75 5.25 6.75 3 9 C3 7.68 3 6.36 3 5 C2.01 4.67 1.02 4.34 0 4 C0 2.68 0 1.36 0 0 Z " fill="#323F5A" transform="translate(201,376)"/>
<path d="M0 0 C0.66 0.33 1.32 0.66 2 1 C0.59928507 6.29158974 -2.85487245 8.77478044 -7 12 C-7.33 11.01 -7.66 10.02 -8 9 C-7.34 9 -6.68 9 -6 9 C-5.34 7.68 -4.68 6.36 -4 5 C-3.01 5 -2.02 5 -1 5 C-0.67 3.35 -0.34 1.7 0 0 Z " fill="#414C62" transform="translate(120,306)"/>
<path d="M0 0 C2.31 0.33 4.62 0.66 7 1 C6.3125 2.9375 6.3125 2.9375 5 5 C2.12060581 5.93580311 0.74490212 6.37245106 -2 5 C-1.34 3.35 -0.68 1.7 0 0 Z " fill="#273654" transform="translate(249,242)"/>
<path d="M0 0 C0.99 0 1.98 0 3 0 C1.58832253 5.26170694 -0.74850232 8.72171358 -4 13 C-4.33 11.68 -4.66 10.36 -5 9 C-4.34 9 -3.68 9 -3 9 C-2.01 6.03 -1.02 3.06 0 0 Z " fill="#505C6F" transform="translate(120,192)"/>
<path d="M0 0 C2.75 -0.3125 2.75 -0.3125 6 0 C10 4 10 4 10 7 C5.04303419 5.76075855 2.88341534 4.21422242 0 0 Z " fill="#37435C" transform="translate(360,405)"/>
<path d="M0 0 C-1 3 -1 3 -3 4 C-5.3329866 4.04022391 -7.66706666 4.04320247 -10 4 C-10 3.01 -10 2.02 -10 1 C-6.59437148 0.22157062 -3.49234244 -0.09978121 0 0 Z " fill="#233451" transform="translate(253,358)"/>
<path d="M0 0 C1.32 0.33 2.64 0.66 4 1 C2.02 3.97 0.04 6.94 -2 10 C-4 7 -4 7 -3.8125 5 C-2.86207391 2.66048963 -2.07114751 1.45747417 0 0 Z " fill="#48546D" transform="translate(285,213)"/>
<path d="M0 0 C3.3 0 6.6 0 10 0 C10.33 0.99 10.66 1.98 11 3 C10.67 3.33 10.34 3.66 10 4 C5.17023053 3.6422393 3.5166506 3.5166506 0 0 Z " fill="#172544" transform="translate(148,359)"/>
<path d="M0 0 C0 3.69418201 -1.28179295 5.77836178 -3 9 C-3.33 7.68 -3.66 6.36 -4 5 C-5.32 5.33 -6.64 5.66 -8 6 C-7.34 4.35 -6.68 2.7 -6 1 C-5.34 1.33 -4.68 1.66 -4 2 C-1.88316159 1.10836423 -1.88316159 1.10836423 0 0 Z " fill="#576078" transform="translate(334,363)"/>
<path d="M0 0 C1.36125 0.12375 1.36125 0.12375 2.75 0.25 C2.42 1.24 2.09 2.23 1.75 3.25 C-0.6875 4.375 -0.6875 4.375 -3.25 5.25 C-4.24 5.745 -4.24 5.745 -5.25 6.25 C-5.91 5.59 -6.57 4.93 -7.25 4.25 C-4.83923194 1.28290085 -3.90322061 0.30024774 0 0 Z " fill="#505B70" transform="translate(157.25,148.75)"/>
<path d="M0 0 C0.66 0.33 1.32 0.66 2 1 C0.32702416 3.46543808 -1.19529845 5.15242806 -3.5625 7 C-5.92366378 8.93736516 -6.90137958 10.20351167 -8 13 C-8.33 12.01 -8.66 11.02 -9 10 C-7.890625 8.02734375 -7.890625 8.02734375 -6.25 5.9375 C-5.45335937 4.89916016 -5.45335937 4.89916016 -4.640625 3.83984375 C-3 2 -3 2 0 0 Z " fill="#717B8D" transform="translate(166,88)"/>
<path d="M0 0 C2.39763185 2.39763185 2.34280586 3.33273498 2.625 6.625 C2.69976562 7.44226563 2.77453125 8.25953125 2.8515625 9.1015625 C2.92503906 10.04128906 2.92503906 10.04128906 3 11 C-0.890625 9.2265625 -0.890625 9.2265625 -1.875 7.1875 C-2.0358641 4.37237823 -1.19164995 2.523494 0 0 Z " fill="#425169" transform="translate(273,378)"/>
<path d="M0 0 C2.0625 1.6875 2.0625 1.6875 4 4 C3.75 6.75 3.75 6.75 3 9 C1.68 8.67 0.36 8.34 -1 8 C-1.125 2.25 -1.125 2.25 0 0 Z " fill="#3D4A64" transform="translate(280,362)"/>
<path d="M0 0 C0.33 0 0.66 0 1 0 C1.16435547 0.90492188 1.16435547 0.90492188 1.33203125 1.828125 C2.50797128 7.93684987 2.50797128 7.93684987 6 13 C3.03 12.505 3.03 12.505 0 12 C-0.76173392 7.6835078 -1.16063604 4.25566547 0 0 Z " fill="#5A6379" transform="translate(51,195)"/>
<path d="M0 0 C2.74792483 3.40219265 6 7.48464588 6 12 C2.15443885 10.71814628 1.57931973 9.21420223 -0.28125 5.7890625 C-1 4 -1 4 -0.75 1.5625 C-0.5025 1.046875 -0.255 0.53125 0 0 Z " fill="#566176" transform="translate(208,218)"/>
<path d="M0 0 C3.78717347 1.48781815 5.77407001 3.61988409 8 7 C7.67 7.99 7.34 8.98 7 10 C6.54625 9.34 6.0925 8.68 5.625 8 C5.08875 7.34 4.5525 6.68 4 6 C3.34 6 2.68 6 2 6 C0 3 0 3 0 0 Z " fill="#525F74" transform="translate(116,160)"/>
<path d="M0 0 C0.99 0.33 1.98 0.66 3 1 C3.33 2.65 3.66 4.3 4 6 C2.35 6.66 0.7 7.32 -1 8 C-0.34 6.35 0.32 4.7 1 3 C-0.32 3.33 -1.64 3.66 -3 4 C-2.01 2.68 -1.02 1.36 0 0 Z " fill="#4D596E" transform="translate(163,381)"/>
<path d="M0 0 C1.98 0 3.96 0 6 0 C5.67 1.98 5.34 3.96 5 6 C3.35 5.67 1.7 5.34 0 5 C0 3.35 0 1.7 0 0 Z " fill="#283657" transform="translate(322,373)"/>
<path d="M0 0 C1.98 0 3.96 0 6 0 C7 3 7 3 6 6 C5.01 5.67 4.02 5.34 3 5 C3 4.34 3 3.68 3 3 C2.01 3.33 1.02 3.66 0 4 C0 2.68 0 1.36 0 0 Z " fill="#303F5C" transform="translate(163,365)"/>
<path d="M0 0 C2.14809171 3.22213757 2.29386153 4.27775401 2 8 C1.67 8.33 1.34 8.66 1 9 C1.061875 10.423125 1.061875 10.423125 1.125 11.875 C1 15 1 15 -2 18 C-1.34 12.06 -0.68 6.12 0 0 Z " fill="#697488" transform="translate(274,177)"/>
<path d="M0 0 C-2.88019276 1.46652017 -5.79308515 2.82047874 -8.75 4.125 C-9.54921875 4.47820312 -10.3484375 4.83140625 -11.171875 5.1953125 C-11.77515625 5.46085938 -12.3784375 5.72640625 -13 6 C-12.66796875 4.078125 -12.66796875 4.078125 -12 2 C-7.94298942 0.11301833 -4.43457902 -0.21117043 0 0 Z " fill="#5B6678" transform="translate(419,183)"/>
<path d="M0 0 C-1.98 0.33 -3.96 0.66 -6 1 C-6.33 1.99 -6.66 2.98 -7 4 C-9.375 4.625 -9.375 4.625 -12 5 C-12.66 4.34 -13.32 3.68 -14 3 C-12.42274653 2.29866401 -10.83788667 1.614417 -9.25 0.9375 C-7.92742187 0.36322266 -7.92742187 0.36322266 -6.578125 -0.22265625 C-3.84743691 -1.04600008 -2.63098653 -0.9773992 0 0 Z " fill="#505B70" transform="translate(397,143)"/>
<path d="M0 0 C2.0625 1.625 2.0625 1.625 4 4 C3.75 7.25 3.75 7.25 3 10 C2.34 8.68 1.68 7.36 1 6 C0.01 6.33 -0.98 6.66 -2 7 C-1.34 4.69 -0.68 2.38 0 0 Z " fill="#566179" transform="translate(278,366)"/>
<path d="M0 0 C0.33 0 0.66 0 1 0 C1.29296875 6.0546875 1.29296875 6.0546875 1 8 C0.01 8.66 -0.98 9.32 -2 10 C-1.67 8.35 -1.34 6.7 -1 5 C-2.65 5.33 -4.3 5.66 -6 6 C-5.67 5.01 -5.34 4.02 -5 3 C-3.35 3.33 -1.7 3.66 0 4 C0 2.68 0 1.36 0 0 Z " fill="#545F77" transform="translate(124,363)"/>
<path d="M0 0 C3.0916909 2.52956528 3.90931332 5.22454612 5 9 C4.01 8.67 3.02 8.34 2 8 C2 7.01 2 6.02 2 5 C0.35 4.67 -1.3 4.34 -3 4 C-2.01 2.68 -1.02 1.36 0 0 Z " fill="#515E73" transform="translate(121,251)"/>
<path d="M0 0 C4.26086957 6.39130435 4.26086957 6.39130435 3.625 10.3125 C3.41875 10.869375 3.2125 11.42625 3 12 C3 11.01 3 10.02 3 9 C2.34 9 1.68 9 1 9 C0.67 9.66 0.34 10.32 0 11 C-0.19406478 9.35492782 -0.38007935 7.70890406 -0.5625 6.0625 C-0.66691406 5.14597656 -0.77132813 4.22945312 -0.87890625 3.28515625 C-0.91886719 2.53105469 -0.95882813 1.77695313 -1 1 C-0.67 0.67 -0.34 0.34 0 0 Z " fill="#535E75" transform="translate(491,174)"/>
<path d="M0 0 C0.66 0.33 1.32 0.66 2 1 C-0.625 5.875 -0.625 5.875 -4 7 C-4.66 6.34 -5.32 5.68 -6 5 C-4.02 3.35 -2.04 1.7 0 0 Z " fill="#454F69" transform="translate(377,149)"/>
<path d="M0 0 C2.50037734 2.17424117 3.43628586 3.73045798 4 7 C2.35 7 0.7 7 -1 7 C-2 4 -2 4 -1.0625 1.8125 C-0.5365625 0.9153125 -0.5365625 0.9153125 0 0 Z " fill="#172746" transform="translate(120,360)"/>
<path d="M0 0 C1.65 0 3.3 0 5 0 C4.67 1.32 4.34 2.64 4 4 C2.02 4.33 0.04 4.66 -2 5 C-1.34 3.35 -0.68 1.7 0 0 Z " fill="#283651" transform="translate(114,358)"/>
<path d="M0 0 C2.97 0.495 2.97 0.495 6 1 C6 1.99 6 2.98 6 4 C6.33 3.34 6.66 2.68 7 2 C7.66 2 8.32 2 9 2 C9 2.99 9 3.98 9 5 C9.99 5.33 10.98 5.66 12 6 C7.5428126 5.73781251 5.48477302 5.42288711 2.0625 2.4375 C1.381875 1.633125 0.70125 0.82875 0 0 Z " fill="#576277" transform="translate(144,337)"/>
<path d="M0 0 C3.3 1.98 6.6 3.96 10 6 C8.68 6.33 7.36 6.66 6 7 C6 6.34 6 5.68 6 5 C4.68 5.33 3.36 5.66 2 6 C1.34 4.02 0.68 2.04 0 0 Z " fill="#4F5B71" transform="translate(17,277)"/>
<path d="M0 0 C0.33 0.66 0.66 1.32 1 2 C-0.21958756 4.67371119 -1.18298261 6.75412136 -3 9 C-5.75 9.9375 -5.75 9.9375 -8 10 C-7.34 9.67 -6.68 9.34 -6 9 C-5.71125 8.4225 -5.4225 7.845 -5.125 7.25 C-3.75594553 4.51189105 -1.95444103 2.34532924 0 0 Z " fill="#576176" transform="translate(243,250)"/>
<path d="M0 0 C1.485 0.99 1.485 0.99 3 2 C2.67 3.65 2.34 5.3 2 7 C2.66 7.33 3.32 7.66 4 8 C2.68 8.33 1.36 8.66 0 9 C-1.125 3.375 -1.125 3.375 0 0 Z " fill="#21304E" transform="translate(295,376)"/>
<path d="M0 0 C0.66 0 1.32 0 2 0 C2 2.66666667 2 5.33333333 2 8 C1.34 8.66 0.68 9.32 0 10 C-0.74926071 6.33694766 -1.2380014 3.57644848 0 0 Z " fill="#2E3B55" transform="translate(315,363)"/>
<path d="M0 0 C0.99 0.33 1.98 0.66 3 1 C2.19185349 2.33597652 1.37836819 3.668725 0.5625 5 C0.11003906 5.7425 -0.34242188 6.485 -0.80859375 7.25 C-1.20175781 7.8275 -1.59492188 8.405 -2 9 C-2.33 9 -2.66 9 -3 9 C-2.67 6.69 -2.34 4.38 -2 2 C-1.34 2 -0.68 2 0 2 C0 1.34 0 0.68 0 0 Z " fill="#525E71" transform="translate(268,240)"/>
<path d="M0 0 C2.97 0.99 5.94 1.98 9 3 C6.64046906 5.35953094 5.22104383 5.49141413 2 6 C2 4.68 2 3.36 2 2 C1.34 2 0.68 2 0 2 C0 1.34 0 0.68 0 0 Z " fill="#4E5B73" transform="translate(64,213)"/>
<path d="M0 0 C0.99 0.33 1.98 0.66 3 1 C3.625 3.875 3.625 3.875 4 7 C3.34 7.66 2.68 8.32 2 9 C-1.07692308 4.56923077 -1.07692308 4.56923077 -0.6875 1.6875 C-0.460625 1.130625 -0.23375 0.57375 0 0 Z " fill="#424C6A" transform="translate(186,213)"/>
<path d="M0 0 C1.32 0 2.64 0 4 0 C3.34 1.98 2.68 3.96 2 6 C0.68 5.67 -0.64 5.34 -2 5 C-1.125 1.125 -1.125 1.125 0 0 Z " fill="#303E53" transform="translate(143,360)"/>
<path d="M0 0 C0.66 0.33 1.32 0.66 2 1 C1.01 2.32 0.02 3.64 -1 5 C-3.31 4.67 -5.62 4.34 -8 4 C-6.66666667 3.33333333 -5.33333333 2.66666667 -4 2 C-3.29875 1.608125 -2.5975 1.21625 -1.875 0.8125 C-1.25625 0.544375 -0.6375 0.27625 0 0 Z " fill="#576377" transform="translate(81,290)"/>
<path d="M0 0 C2.97 0 5.94 0 9 0 C9 0.33 9 0.66 9 1 C7.02 1 5.04 1 3 1 C3 2.32 3 3.64 3 5 C2.01 5 1.02 5 0 5 C0 3.35 0 1.7 0 0 Z " fill="#344055" transform="translate(49,358)"/>
<path d="M0 0 C0.33 0 0.66 0 1 0 C1.33 3.96 1.66 7.92 2 12 C1.01 11.67 0.02 11.34 -1 11 C-0.67 7.37 -0.34 3.74 0 0 Z " fill="#5C667D" transform="translate(397,257)"/>
<path d="M0 0 C0.66 0.66 1.32 1.32 2 2 C0 5 0 5 -3.125 5.6875 C-4.07375 5.790625 -5.0225 5.89375 -6 6 C-6.33 5.01 -6.66 4.02 -7 3 C-4.69 2.01 -2.38 1.02 0 0 Z " fill="#112546" transform="translate(55,184)"/>
<path d="M0 0 C0.66 0.33 1.32 0.66 2 1 C1 4 1 4 -1.9375 5.75 C-3.4534375 6.36875 -3.4534375 6.36875 -5 7 C-5.66 6.67 -6.32 6.34 -7 6 C-4.69 4.02 -2.38 2.04 0 0 Z " fill="#586476" transform="translate(31,152)"/>
<path d="M0 0 C2.3431213 0.25561323 4.67843403 0.59270772 7 1 C7.33 1.66 7.66 2.32 8 3 C7.67 3.99 7.34 4.98 7 6 C4.12549673 4.71142957 2.07476576 3.38598062 0 1 C0 0.67 0 0.34 0 0 Z " fill="#434F69" transform="translate(278,136)"/>
<path d="M0 0 C0.6875 2.3125 0.6875 2.3125 1 5 C-0.4375 6.8125 -0.4375 6.8125 -2 8 C-2.66 5.69 -3.32 3.38 -4 1 C-2 0 -2 0 0 0 Z " fill="#4C5B73" transform="translate(184,210)"/>
<path d="M0 0 C0.99 0.33 1.98 0.66 3 1 C2.25 6.75 2.25 6.75 0 9 C-0.87890625 2.84765625 -0.87890625 2.84765625 -1 1 C-0.67 0.67 -0.34 0.34 0 0 Z " fill="#46546A" transform="translate(202,121)"/>
<path d="M0 0 C2.97 0.495 2.97 0.495 6 1 C5.67 1.99 5.34 2.98 5 4 C3.68 4 2.36 4 1 4 C0.67 2.68 0.34 1.36 0 0 Z " fill="#464F65" transform="translate(198,384)"/>
<path d="M0 0 C0 0.66 0 1.32 0 2 C0.66 2 1.32 2 2 2 C2.33 2.99 2.66 3.98 3 5 C2.01 5.33 1.02 5.66 0 6 C-0.66 5.67 -1.32 5.34 -2 5 C-2 4.34 -2 3.68 -2 3 C-2.66 2.34 -3.32 1.68 -4 1 C-2 0 -2 0 0 0 Z " fill="#152544" transform="translate(141,379)"/>
<path d="M0 0 C2 2 2 2 2.1953125 3.9453125 C2.13020833 5.96354167 2.06510417 7.98177083 2 10 C1.67 10 1.34 10 1 10 C0.67 8.35 0.34 6.7 0 5 C-0.99 5 -1.98 5 -3 5 C-2.01 3.35 -1.02 1.7 0 0 Z " fill="#4C5871" transform="translate(258,377)"/>
<path d="M0 0 C0.33 1.65 0.66 3.3 1 5 C0.34 5 -0.32 5 -1 5 C-1 4.34 -1 3.68 -1 3 C-1.66 3 -2.32 3 -3 3 C-3.33 3.99 -3.66 4.98 -4 6 C-4.33 5.34 -4.66 4.68 -5 4 C-4.67 3.01 -4.34 2.02 -4 1 C-2 0 -2 0 0 0 Z " fill="#38475D" transform="translate(279,372)"/>
<path d="M0 0 C2.475 0.495 2.475 0.495 5 1 C5 1.99 5 2.98 5 4 C4.01 4.33 3.02 4.66 2 5 C1.34 4.34 0.68 3.68 0 3 C0 2.01 0 1.02 0 0 Z " fill="#1E2A4F" transform="translate(281,361)"/>
<path d="M0 0 C2.18975773 3.28463659 2.99806563 6.20696275 4 10 C3.01 10.33 2.02 10.66 1 11 C0.67 7.37 0.34 3.74 0 0 Z " fill="#5B6479" transform="translate(202,203)"/>
<path d="M0 0 C1.3609623 2.7219246 0.70366248 4.1831957 0.0625 7.125 C-0.13214844 8.03507813 -0.32679688 8.94515625 -0.52734375 9.8828125 C-0.68332031 10.58148438 -0.83929688 11.28015625 -1 12 C-1.33 12 -1.66 12 -2 12 C-2.33 8.7 -2.66 5.4 -3 2 C-2.01 1.34 -1.02 0.68 0 0 Z " fill="#677186" transform="translate(399,197)"/>
<path d="M0 0 C0.66 0 1.32 0 2 0 C2 0.66 2 1.32 2 2 C2.66 2 3.32 2 4 2 C4 2.66 4 3.32 4 4 C4.99 3.67 5.98 3.34 7 3 C7 3.99 7 4.98 7 6 C3.20411134 5.45773019 1.52788007 3.79872437 -1 1 C-0.67 0.67 -0.34 0.34 0 0 Z " fill="#60697C" transform="translate(107,200)"/>
<path d="M0 0 C2.97 0.495 2.97 0.495 6 1 C4.35 2.65 2.7 4.3 1 6 C0.34 5.34 -0.32 4.68 -1 4 C-0.625 1.875 -0.625 1.875 0 0 Z " fill="#414F67" transform="translate(51,188)"/>
<path d="M0 0 C1.98 0 3.96 0 6 0 C6 0.66 6 1.32 6 2 C6.99 2.66 7.98 3.32 9 4 C2.25 3.125 2.25 3.125 0 2 C0 1.34 0 0.68 0 0 Z " fill="#555F72" transform="translate(292,339)"/>
<path d="M0 0 C1.65 0 3.3 0 5 0 C4.67 0.99 4.34 1.98 4 3 C1.4375 4.1875 1.4375 4.1875 -1 5 C-0.67 3.35 -0.34 1.7 0 0 Z " fill="#425065" transform="translate(469,316)"/>
<path d="M0 0 C1 3 1 3 0 6 C-1.65 6 -3.3 6 -5 6 C-4.67 5.34 -4.34 4.68 -4 4 C-3.34 4 -2.68 4 -2 4 C-1.34 2.68 -0.68 1.36 0 0 Z " fill="#5D687C" transform="translate(451,279)"/>
<path d="M0 0 C0.99 0.33 1.98 0.66 3 1 C2.34 2.32 1.68 3.64 1 5 C0.01 5 -0.98 5 -2 5 C-1.34 3.35 -0.68 1.7 0 0 Z " fill="#3F4B65" transform="translate(260,250)"/>
<path d="M0 0 C1.875 0.3125 1.875 0.3125 4 1 C6 4 6 4 5.625 6.1875 C5.41875 6.785625 5.2125 7.38375 5 8 C4.16382818 6.8562364 3.33113541 5.70992861 2.5 4.5625 C2.0359375 3.92441406 1.571875 3.28632813 1.09375 2.62890625 C0 1 0 1 0 0 Z " fill="#576173" transform="translate(201,241)"/>
<path d="M0 0 C2 1 2 1 3.125 4.0625 C3.41375 5.031875 3.7025 6.00125 4 7 C1.525 6.01 1.525 6.01 -1 5 C-1 2 -1 2 0 0 Z " fill="#4C566D" transform="translate(35,242)"/>
<path d="M0 0 C2.31 0.33 4.62 0.66 7 1 C6.67 1.66 6.34 2.32 6 3 C3.69 3 1.38 3 -1 3 C-0.67 2.01 -0.34 1.02 0 0 Z " fill="#414F65" transform="translate(59,185)"/>
<path d="M0 0 C1.35158203 0.15275391 1.35158203 0.15275391 2.73046875 0.30859375 C3.41753906 0.39238281 4.10460937 0.47617188 4.8125 0.5625 C4.8125 0.8925 4.8125 1.2225 4.8125 1.5625 C3.719375 1.541875 2.62625 1.52125 1.5 1.5 C-2.13134191 1.37705548 -2.13134191 1.37705548 -5.1875 2.5625 C-6.1775 1.9025 -7.1675 1.2425 -8.1875 0.5625 C-4.98734144 -0.50421952 -3.30205706 -0.38595472 0 0 Z " fill="#18253E" transform="translate(298.1875,85.4375)"/>
<path d="M0 0 C2.475 0.495 2.475 0.495 5 1 C4.67 2.65 4.34 4.3 4 6 C0 1.125 0 1.125 0 0 Z " fill="#4F5A70" transform="translate(193,229)"/>
</svg>
